<?xml version="1.0" encoding="UTF-8"?><svg id="_레이어_2" xmlns="http://www.w3.org/2000/svg" viewBox="0 0 324.02 45.35"><defs><style>.cls-1{fill:#35d8ad;}</style></defs><g id="_레이어_1-2"><g><path d="m0,44.16V1.2h11.17l20.63,26.27V1.2h11.11v42.96h-11.11L11.17,17.89v26.27H0Z"/><path d="m125.8,10.65h-13.45v7.18h12.25v9.46h-12.25v16.87h-11.17V1.2h24.61v9.46Z"/><path d="m141.92,1.2v33.5h13.39v9.46h-24.56V1.2h11.17Z"/><path d="m170.53,1.2v42.96h-11.17V1.2h11.17Z"/><path d="m208.76,15.55c-2.58-3.15-5.77-4.73-9.57-4.73-1.67,0-3.22.3-4.64.91-1.42.61-2.65,1.43-3.67,2.48s-1.83,2.29-2.42,3.73c-.59,1.44-.88,3-.88,4.67s.29,3.29.88,4.73,1.41,2.7,2.45,3.76c1.04,1.06,2.27,1.9,3.67,2.51s2.92.91,4.56.91c3.57,0,6.78-1.52,9.63-4.56v13.22l-1.14.4c-1.71.61-3.3,1.05-4.79,1.34-1.48.28-2.94.43-4.39.43-2.96,0-5.8-.56-8.52-1.68-2.72-1.12-5.11-2.7-7.18-4.73-2.07-2.03-3.73-4.44-4.99-7.24-1.25-2.79-1.88-5.84-1.88-9.14s.62-6.33,1.85-9.09c1.23-2.75,2.89-5.13,4.96-7.12s4.47-3.55,7.21-4.67c2.73-1.12,5.6-1.68,8.6-1.68,1.71,0,3.39.18,5.04.54,1.65.36,3.39.92,5.21,1.68v13.33Z"/><path d="m225.28,18.92l13.62-17.72h13.79l-17.04,20.34,18.63,22.62h-14.47l-14.53-18.63v18.63h-11.17V1.2h11.17v17.72Z"/><path d="m281.97,10.65h-13.28v7.18h12.54v9.46h-12.54v7.41h13.28v9.46h-24.44V1.2h24.44v9.46Z"/><path d="m324.02,44.16h-13.9l-10.66-16.52v16.52h-11.17V1.2h17.38c2.39,0,4.48.35,6.27,1.05,1.78.7,3.26,1.66,4.42,2.88,1.16,1.22,2.03,2.62,2.62,4.22.59,1.6.88,3.3.88,5.13,0,3.27-.79,5.92-2.36,7.95-1.58,2.03-3.9,3.41-6.98,4.13l13.5,17.61Zm-24.56-23.76h2.11c2.2,0,3.89-.46,5.07-1.37,1.18-.91,1.77-2.22,1.77-3.93s-.59-3.02-1.77-3.93c-1.18-.91-2.87-1.37-5.07-1.37h-2.11v10.6Z"/><g><path class="cls-1" d="m48.26,22.68c0-3.19.59-6.16,1.77-8.92,1.18-2.75,2.81-5.16,4.9-7.21,2.09-2.05,4.59-3.66,7.49-4.81,2.91-1.16,6.11-1.74,9.6-1.74s6.65.58,9.57,1.74,5.44,2.76,7.55,4.81c2.11,2.05,3.75,4.45,4.93,7.21,1.18,2.75,1.77,5.73,1.77,8.92s-.59,6.16-1.77,8.92c-1.18,2.75-2.82,5.16-4.93,7.21-2.11,2.05-4.62,3.66-7.55,4.81s-6.12,1.74-9.57,1.74-6.7-.58-9.6-1.74c-2.91-1.16-5.4-2.76-7.49-4.81-2.09-2.05-3.72-4.45-4.9-7.21-1.18-2.75-1.77-5.73-1.77-8.92Zm11.68,0c0,1.71.32,3.29.97,4.73.65,1.44,1.52,2.7,2.62,3.76s2.38,1.89,3.85,2.48c1.46.59,3.01.88,4.64.88s3.18-.29,4.64-.88,2.75-1.42,3.88-2.48c1.12-1.06,2-2.32,2.65-3.76.65-1.44.97-3.02.97-4.73s-.32-3.29-.97-4.73c-.65-1.44-1.53-2.7-2.65-3.76-1.12-1.06-2.41-1.89-3.88-2.48s-3.01-.88-4.64-.88-3.18.29-4.64.88c-1.46.59-2.75,1.42-3.85,2.48s-1.97,2.32-2.62,3.76c-.65,1.44-.97,3.02-.97,4.73Z"/><circle class="cls-1" cx="79.7" cy="15.36" r="7.5"/></g></g></g></svg>