<?xml version="1.0" encoding="UTF-8"?><svg id="_레이어_2" xmlns="http://www.w3.org/2000/svg" viewBox="0 0 250.49 266.11"><defs><style>.cls-1{fill:#35d8ad;}</style></defs><g id="_레이어_1-2"><g><path class="cls-1" d="m131.06,266.11v-3.04c0-20.25.04-40.49-.05-60.74-.01-2.36.75-3.08,3.04-3.33,21.67-2.4,39.86-11.78,53.85-28.45,26.43-31.51,26.25-75.33-.41-106.64-13.93-16.36-31.92-25.61-53.31-28.05-2.32-.26-3.24-.85-3.19-3.43.18-9.66.07-19.33.07-28.99,0-3.1.02-3.17,3.21-2.99,16.38.88,32.4,3.96,48.13,8.49,18.28,5.26,36.31,11.22,52.96,20.65,4.12,2.33,7.93,5.22,11.99,7.68,2.23,1.35,3.23,3.04,3.15,5.68-.38,12.31-.12,24.67-1.06,36.93-1.35,17.54-4.35,34.87-8.3,52.03-6.96,30.23-20.79,56.79-41.71,79.69-18.85,20.63-40.03,38.37-64.33,52.28-1.14.65-2.3,1.27-4.04,2.23Z"/><path class="cls-1" d="m119.46,265.74c-.76-.34-1.37-.55-1.92-.87-34.04-19.85-62.96-45.31-84.97-78.19-12.77-19.07-20-40.41-24.52-62.71C2.75,97.86-.85,71.56.18,44.79c.16-4.18,1.54-6.69,4.98-9.09,14.69-10.23,31.06-16.7,47.85-22.35C71.22,7.24,89.77,2.56,108.95.71c2.9-.28,5.82-.41,8.72-.68,1.48-.14,2.11.33,2.11,1.9-.04,10.42-.05,20.83,0,31.25,0,1.67-.73,2.07-2.23,2.23-21.23,2.14-39,11.17-53.47,26.82-26.77,28.95-28.17,75.67-3.19,106.13,14.74,17.96,33.68,28.08,56.73,30.57,1.34.15,2.14.35,2.14,1.97-.04,21.17-.03,42.33-.04,63.5,0,.38-.15.76-.28,1.34Z"/><path d="m181.01,105.39c5.69,19.55-1.06,46.82-23.84,61.91-22.85,15.13-52.85,12.13-72.27-7.13-19.43-19.26-22.63-49.29-7.28-72.96,14.55-22.43,40.79-28.7,58.89-24.26-5.52,13.87-4.11,26.84,6.91,37.35,10.96,10.44,23.85,11.55,37.6,5.08Z"/></g></g></svg>