<?xml version="1.0" encoding="UTF-8"?><svg id="_레이어_2" xmlns="http://www.w3.org/2000/svg" viewBox="0 0 147.1 160.51"><defs><style>.cls-1{fill:#fff000;}.cls-2{fill:#f2d1c5;}</style></defs><g id="_레이어_1-2"><g><path d="m131.46,23.29c2.79,1.81,5.31,3.2,7.51,4.98.99.8,1.99,2.47,1.82,3.56-.17,1.08-1.66,2.43-2.84,2.78-7.92,2.33-15.91,4.43-23.95,6.63.12,2.28.19,4.46.38,6.63.04.46.47.95.83,1.31,8.31,8.34,6.02,21.44-4.67,26.12-2.14.94-3.81,1.82-4.82,4.21-1.19,2.8-3.88,4.05-6.97,4.13-1.63.04-3.27,0-5.19,0,.2,4.28.09,8.43-3.56,10.94-1.86,1.27-4.3,2.03-6.56,2.31-3.37.42-6.36-1.21-7.9-4.08-1.41-2.63-1.87-5.77-2.89-9.15-1.97,0-4.53-.05-7.08.01-3.35.08-5.75-1.41-7.65-4.1-.52-.74-1.63-1.39-2.53-1.47-5.13-.47-10.27-.78-15.41-1.12-7.4-.49-12.81-4.02-15.49-10.94-2.62-6.77-.83-12.77,4.16-17.96.73-.76,1.29-1.99,1.36-3.03.75-11.87,10.1-19.58,21.76-17.92.89.13,2.23.02,2.74-.54,8.4-9.21,18.66-7.19,26.36-2.72,1.64.95,2.65.98,4.33-.09,5.11-3.25,11.04-1.37,13.69,4.06.35.72.7,1.45,1.32,2.74,2.22-2.58,4.19-4.87,6.34-7.36-2.57-1.69-4.83-3.23-7.15-4.69-1.51-.95-2.93-2.17-2.13-3.96.53-1.19,1.93-2.46,3.18-2.81,13.88-3.9,27.82-7.62,41.73-11.4,1.74-.47,3.33-.42,4.38,1.26,1.03,1.65.49,3.14-.68,4.53-4.74,5.61-9.46,11.24-14.4,17.13Zm-20.04,31.7c-1.37,1.06-2.61,2.5-4.16,3.07-1.11.41-3.13.11-3.86-.69-.72-.78-.62-2.65-.33-3.92.19-.81,1.39-1.38,2.13-2.06,2.48-2.23,2.94-4.91,1.78-8.25-3.89,1.04-7.66,2.22-11.5,2.98-1.19.23-3.26-.33-3.77-1.2-.6-1.04-.15-2.86.24-4.23.25-.89,1.25-1.56,1.84-2.37.3-.42.7-.99.63-1.42-.29-1.69-.46-3.5-1.23-4.98-.62-1.2-2-2.72-3.11-2.78-1.96-.1-3.3,1.35-3.2,3.63.05,1.29.07,2.59-.05,3.86-.08.78-.23,1.93-.74,2.21-1.1.61-2.75,1.37-3.63.94-1.05-.5-2.31-2.33-2.12-3.33,1-5.42-2.47-7.13-6.5-8.44-1.73-.56-3.56-1.08-5.36-1.11-3.33-.06-6.23,1.15-8.43,3.92.42.49.72.82,1,1.17,1.27,1.55,1.54,3.23.12,4.73-1.54,1.62-3.28,1.36-4.92-.02-.49-.42-.97-.86-1.51-1.2-3.71-2.32-7.6-2.93-11.43-.49-4.01,2.56-6.98,6.05-6.09,11.15.4,2.31,1.86,4.51,3.13,6.57,1.12,1.82,1.4,3.42-.14,4.98-1.35,1.37-3.55,1.04-5.12-.67-.9-.98-1.71-2.03-2.6-3.09-3.93,5.47-2.77,11.83,2.76,14.82,1.78.96,4,1.3,6.06,1.5,6.32.63,12.65,1.02,18.98,1.58,1.63.15,3.18.79,3.22,2.77.04,2.09,1.29,2.36,2.94,2.34,3.22-.03,6.45-.04,9.67,0,2.91.04,4.01,1.13,4.08,3.99.05,1.93-.06,3.87.04,5.8.11,2.11,1.17,3.53,3.45,3.46,2.12-.07,3.09-1.44,3.15-3.45.06-2.02-.05-4.05.04-6.08.11-2.38,1.33-3.73,3.83-3.72,2.3,0,4.61-.04,6.91,0,1.85.03,2.72-.62,2.47-2.64-.32-2.63,1.12-3.59,3.63-4.15,2.42-.54,5-1.51,6.87-3.06,3.89-3.22,4.07-9.13.83-12.13Zm-6.97-18.81c.12.19.24.37.36.56,8.04-2.18,16.08-4.37,24.58-6.67-1.57-1.06-2.62-1.78-3.69-2.49-3.16-2.1-3.42-3.74-.96-6.72,2.97-3.6,5.98-7.16,9.5-11.38-8.87,2.4-16.97,4.6-25.61,6.94,1.56,1.06,2.53,1.74,3.52,2.39,3.43,2.28,3.68,3.72,1.08,6.85-2.91,3.52-5.85,7.01-8.78,10.52Z"/><path d="m7.17,95.95c3.63,0,7.12-.01,10.61,0,4.76.02,5.88,1.49,4.72,6.15-.22.89-.37,1.81-.71,2.66-2.35,5.89-2.22,11.48,1.27,17.02.82,1.29.55,3.36.53,5.06-.03,2.67-.37,5.33-.42,8-.05,2.63,1.13,3.72,3.7,3.63,12.72-.43,25.33-1.8,37.73-4.68,6.75-1.57,12.63-4.58,15.96-11.15,1-1.96,2.65-2.68,4.59-1.77,2.05.95,2.26,2.82,1.4,4.72-2.04,4.51-5.46,7.79-9.58,10.42-5.33,3.41-11.38,4.59-17.47,5.64-1.81.31-3.62.9-5.43.93-3.13.05-3.5,1.67-3.11,4.26.48,3.18.72,6.39,1.01,9.59.2,2.23-.62,3.89-3.06,4.05-2.45.16-3.38-1.44-3.6-3.63-.42-4.11-.85-8.22-1.31-12.65-2.86.13-5.67.22-8.47.41-2.94.19-5.87.52-8.8.72-5.33.36-10.11-3.98-10.29-9.32-.03-.83-.05-1.67.06-2.48.84-6.08.17-11.83-3.14-17.2-.63-1.02-.57-2.68-.33-3.96.59-3.12,1.46-6.19,2.32-9.68-3.05,0-5.69.05-8.34-.01-5.4-.12-8.32-4.39-6.46-9.48,2.36-6.48,4.96-12.88,7.14-19.42.96-2.89,1.62-6.05,1.58-9.08-.14-9.77.79-19.34,4.55-28.42C22.36,15.68,37.95,4.08,59.79.74c8.92-1.36,17.81-.84,26.54,1.57.18.05.36.07.54.12,2.9.84,4.18,2.51,3.53,4.6-.65,2.07-2.37,2.48-5.27,2-5.42-.9-10.88-2.1-16.33-2.13-30.01-.16-52.75,21.86-52.48,51.86.1,11.19-3.59,20.83-7.24,30.79-.67,1.81-1.32,3.63-1.96,5.45-.06.16.02.36.06.95Z"/><path d="m133.85,65.41c-.26,14.92-2.19,27.3-8.89,38.45-2.83,4.71-6.13,9.17-9.52,13.5-.65.83-2.94,1.05-4.13.61-1.81-.66-2.01-2.67-1.17-4.25,1.15-2.18,2.47-4.34,4.08-6.2,7.8-9.01,11.49-19.69,12.24-31.31.47-7.2-.17-14.48-.46-21.72-.13-3.18.62-4.85,2.83-5.07,2.04-.2,3.51,1.26,3.83,4.12.53,4.66.93,9.33,1.18,11.88Z"/><path d="m118.04,157.81c-.83.73-1.79,2.17-3.07,2.55-1.94.59-3.4-.69-3.77-2.66-.96-5.13-1.81-10.28-2.66-15.43-.35-2.1.41-3.72,2.61-4.13,2.15-.39,3.53.69,3.92,2.86.96,5.32,1.88,10.64,2.97,16.81Z"/><path d="m109.86,131.48c-1.91-.26-3.2-1.24-3.24-3.34-.04-2.15,1.27-3.25,3.24-3.28,2.02-.03,3.33,1.22,3.33,3.26,0,2.02-1.26,3.15-3.34,3.36Z"/><path class="cls-2" d="m111.42,54.99c3.24,3,3.06,8.91-.83,12.13-1.87,1.55-4.46,2.53-6.87,3.06-2.51.56-3.95,1.52-3.63,4.15.24,2.02-.63,2.67-2.47,2.64-2.3-.04-4.61,0-6.91,0-2.5,0-3.73,1.34-3.83,3.72-.09,2.02.02,4.05-.04,6.08-.06,2.02-1.03,3.39-3.15,3.45-2.28.07-3.33-1.35-3.45-3.46-.1-1.93,0-3.87-.04-5.8-.07-2.86-1.17-3.95-4.08-3.99-3.22-.04-6.45-.03-9.67,0-1.65.02-2.89-.25-2.94-2.34-.04-1.98-1.58-2.62-3.22-2.77-6.32-.56-12.66-.95-18.98-1.58-2.06-.2-4.28-.54-6.06-1.5-5.54-2.99-6.7-9.36-2.76-14.82.89,1.06,1.7,2.12,2.6,3.09,1.57,1.71,3.78,2.04,5.12.67,1.54-1.56,1.26-3.17.14-4.98-1.27-2.07-2.73-4.26-3.13-6.57-.89-5.1,2.07-8.59,6.09-11.15,3.83-2.44,7.72-1.83,11.43.49.54.34,1.02.78,1.51,1.2,1.64,1.38,3.38,1.63,4.92.02,1.42-1.5,1.15-3.18-.12-4.73-.29-.35-.59-.69-1-1.17,2.2-2.77,5.09-3.98,8.43-3.92,1.8.03,3.63.55,5.36,1.11,4.03,1.31,7.5,3.02,6.5,8.44-.18,1,1.08,2.83,2.12,3.33.89.42,2.53-.34,3.63-.94.51-.28.67-1.43.74-2.21.12-1.28.1-2.58.05-3.86-.1-2.28,1.24-3.73,3.2-3.63,1.11.06,2.49,1.58,3.11,2.78.77,1.48.94,3.29,1.23,4.98.07.43-.32,1-.63,1.42-.59.82-1.59,1.48-1.84,2.37-.39,1.37-.84,3.19-.24,4.23.5.87,2.57,1.43,3.77,1.2,3.85-.75,7.61-1.93,11.5-2.98,1.16,3.34.7,6.02-1.78,8.25-.75.68-1.95,1.25-2.13,2.06-.29,1.26-.39,3.14.33,3.92.73.8,2.75,1.1,3.86.69,1.55-.57,2.79-2,4.17-3.07Zm-28.92,5.34c.24,4.45,2.55,8.34,6.44,9.54,1.14.35,3.32-.29,3.91-1.19.6-.94.35-3.54-.42-4.04-2.97-1.92-3.28-4.14-2.42-7.3.25-.94-1.12-3.07-2.15-3.39-1.05-.33-3.06.54-3.79,1.52-.96,1.29-1.08,3.21-1.57,4.86Zm-25-9.2c.71-.2,2.23-.52,3.66-1.08,1.85-.73,2.78-2.16,2.13-4.16-.69-2.16-2.41-2.84-4.38-2.05-2.58,1.03-4.4.5-5.84-1.84-1.15-1.87-2.86-2.4-4.71-1.24-1.87,1.18-1.99,3.03-.91,4.83,2.07,3.44,5.02,5.52,10.04,5.54Zm2.75,13.52c4.34-.25,7.91-2.48,9.54-6.14.79-1.78.43-3.31-1.12-4.35-1.58-1.04-3.43-.87-4.37.75-1.69,2.89-3.81,3.18-6.73,2.2-1.76-.59-3.34.29-3.87,2.14-.5,1.75,0,3.35,1.87,4.05,1.52.57,3.13.9,4.7,1.34Zm19.15-11.1c2.05.09,3.72-.55,4.05-2.78.35-2.35-.97-3.62-3.23-3.88-2.02-.23-3.18-1.14-3.35-3.27-.18-2.3-1.48-3.6-3.82-3.3-2.42.31-3.01,2.1-2.83,4.26.42,4.95,4.26,8.71,9.17,8.97Z"/><path class="cls-1" d="m104.45,36.18c2.93-3.5,5.87-7,8.78-10.52,2.59-3.13,2.35-4.57-1.08-6.85-.99-.66-1.96-1.33-3.52-2.39,8.64-2.34,16.75-4.54,25.61-6.94-3.52,4.21-6.53,7.77-9.5,11.38-2.45,2.98-2.19,4.62.96,6.72,1.06.71,2.12,1.43,3.69,2.49-8.49,2.31-16.53,4.49-24.58,6.67-.12-.19-.24-.37-.36-.56Z"/><path d="m82.5,60.33c.48-1.65.61-3.57,1.57-4.86.73-.98,2.74-1.85,3.79-1.52,1.03.32,2.4,2.46,2.15,3.39-.86,3.16-.55,5.38,2.42,7.3.77.5,1.03,3.1.42,4.04-.58.91-2.77,1.54-3.91,1.19-3.89-1.2-6.2-5.09-6.44-9.54Z"/><path d="m57.5,51.13c-5.02-.02-7.97-2.1-10.04-5.54-1.08-1.8-.96-3.66.91-4.83,1.84-1.16,3.56-.63,4.71,1.24,1.43,2.34,3.26,2.87,5.84,1.84,1.97-.79,3.69-.11,4.38,2.05.64,2-.28,3.43-2.13,4.16-1.43.56-2.95.88-3.66,1.08Z"/><path d="m60.25,64.65c-1.57-.44-3.18-.77-4.7-1.34-1.87-.7-2.37-2.3-1.87-4.05.54-1.86,2.11-2.74,3.87-2.14,2.92.99,5.05.69,6.73-2.2.95-1.62,2.8-1.8,4.37-.75,1.56,1.03,1.92,2.57,1.12,4.35-1.63,3.66-5.2,5.89-9.54,6.14Z"/><path d="m79.4,53.55c-4.91-.27-8.75-4.02-9.17-8.97-.18-2.16.41-3.94,2.83-4.26,2.34-.3,3.64.99,3.82,3.3.16,2.13,1.33,3.04,3.35,3.27,2.26.26,3.58,1.53,3.23,3.88-.34,2.23-2,2.88-4.05,2.78Z"/></g></g></svg>