<?xml version="1.0" encoding="UTF-8"?><svg id="_레이어_2" xmlns="http://www.w3.org/2000/svg" viewBox="0 0 98.51 98.55"><g id="_레이어_1-2"><g id="ctxGYe"><g><path d="m94.09,42.96c1.31-.18,2.6-.36,3.88-.54,2.6,16.27-3.97,39.03-26.11,50.57-21.02,10.95-46.58,5.27-61.16-13.09-15.09-18.99-13.99-45.86,1.84-63.48C28.84-1.7,53.14-3.5,69.99,4.6c-.55,1.19-1.1,2.38-1.66,3.58-10.61-4.72-21.46-5.54-32.53-2.12-9.43,2.91-17.09,8.42-22.96,16.34-11.59,15.65-11.81,37.08-.58,52.93,11.46,16.18,31.46,22.78,49.85,17.32,10.7-3.18,19.12-9.54,25.17-18.91,6.06-9.37,8.16-19.67,6.8-30.77Z"/><path d="m49.59,63.96c.54-.57,1.05-1.13,1.58-1.66,6.08-6.09,12.17-12.18,18.25-18.26,4.65-4.65,9.3-9.31,13.95-13.96,1.25-1.25,3.03-1.58,4.59-.86,1.54.71,2.46,2.32,2.3,4.06-.09.97-.52,1.79-1.22,2.49-4.48,4.48-8.96,8.96-13.44,13.45-4.94,4.94-9.87,9.88-14.81,14.82-2.79,2.79-5.58,5.57-8.37,8.36-1.66,1.65-4.12,1.67-5.78.01-3.59-3.58-7.17-7.17-10.75-10.75-.98-.98-1.95-1.95-2.93-2.93-1.12-1.12-1.51-2.47-1.1-3.99.4-1.49,1.4-2.45,2.91-2.83,1.47-.37,2.76.02,3.83,1.09,3.54,3.53,7.07,7.07,10.61,10.6.1.1.2.19.38.36Z"/><path d="m49.56,37.36c.96-.97,1.89-1.91,2.83-2.85,5.63-5.64,11.27-11.27,16.91-16.9,4.7-4.7,9.39-9.4,14.1-14.1,1.16-1.16,2.56-1.51,4.11-1.01,1.52.49,2.45,1.57,2.72,3.15.23,1.38-.19,2.58-1.18,3.57-4.15,4.14-8.29,8.28-12.43,12.43-7.12,7.12-14.24,14.24-21.36,21.37-.94.94-1.87,1.88-2.81,2.81-1.66,1.66-4.11,1.69-5.78.03-4.6-4.58-9.19-9.17-13.77-13.77-1.21-1.22-1.5-2.97-.81-4.53.65-1.46,2.17-2.39,3.84-2.32,1.09.04,2,.51,2.77,1.28,2.12,2.13,4.24,4.25,6.36,6.37,1.39,1.39,2.79,2.79,4.18,4.18.09.09.19.17.33.3Z"/><path d="m61.42,11.72c-.31.94-.61,1.87-.9,2.78-10.96-3.19-21.34-2.04-30.94,4.12-8.36,5.37-13.72,13.02-15.85,22.73-4.56,20.81,9.12,39.8,28.26,43.61,10.71,2.13,20.58-.06,29.3-6.66,8.72-6.6,13.39-15.54,14.42-26.43.47.03.94.05,1.41.08.39.02.79.06,1.18.08.23.01.35.08.32.36-.47,5.95-2.2,11.51-5.2,16.68-3.2,5.5-7.49,9.97-12.84,13.42-4.34,2.8-9.06,4.64-14.14,5.58-3.13.58-6.29.77-9.46.57-7.98-.49-15.17-3.15-21.54-7.98-4.3-3.26-7.77-7.25-10.44-11.93-2.27-3.99-3.79-8.26-4.56-12.8-.43-2.5-.63-5.03-.56-7.56.15-5.76,1.45-11.24,3.99-16.42,2.67-5.43,6.39-10.02,11.15-13.76,4.6-3.61,9.75-6.06,15.44-7.38,3.63-.85,7.31-1.13,11.02-.94,3.28.17,6.5.74,9.63,1.74.09.03.18.07.32.12Z"/></g></g></g></svg>