<?xml version="1.0" encoding="UTF-8"?><svg id="_레이어_2" xmlns="http://www.w3.org/2000/svg" viewBox="0 0 117.81 116.44"><g id="_레이어_1-2"><g id="TypOTF"><g><path d="m68.73,73.37c-8.57,3.75-16.4,3.61-24.72.07,0,3.58.09,6.83-.03,10.08-.08,1.99,1.21,2.73,2.66,3.08,5.96,1.45,7.89,5.3,7.08,11.09-.29,2.07-.08,4.2-.14,6.31-.04,1.41-1,1.64-2.18,1.64-1.17,0-2.13-.24-2.18-1.65-.06-1.8-.36-3.66-.05-5.4.86-4.78-1.32-7.17-5.68-8.47-2.57-.77-4.99-2.07-7.46-3.17-1.02-.46-2.5-.59-1.9-2.41.46-1.4,1.06-2.69,2.81-2.03,2.15.81,2.69-.09,2.64-2.02-.17-5.84,1.22-11.73-4.42-16.54-3.5-2.99-2.73-8.36-3.18-12.82-.18-1.79-.15-3.62-.01-5.41.31-3.94.29-7.42-5.35-6.42-1.39.25-2.13-.54-2.18-2.12-.08-2.26,1.33-2.35,2.93-2.35,9.33,0,18.66,0,27.99-.01,9.63,0,19.26-.04,28.89.05,1.54.01,3.88-.97,4,2.11.12,3.04-2.14,2.48-3.75,2.34-3.07-.25-3.83,1.1-3.79,3.93.05,4.35-.22,8.71-.5,13.06-.26,4.02-1.65,7.55-4.78,10.34-1.95,1.74-3.31,13.21-2.13,15.44.64,1.2,1.45.69,2.27.44,1.7-.53,2.44.32,2.98,1.82.74,2.09-.97,2.14-2.07,2.71-.67.34-1.35.7-2.07.89-7.71,2.02-12.96,5.76-10.86,14.95.3,1.3.02,2.69-2.01,2.77-2.17.09-2.49-1.13-2.47-2.82.02-1.96.2-3.94-.05-5.86-.67-5.25,1.07-8.81,6.48-10.09,2.67-.63,3.48-2.34,3.28-4.98-.2-2.68-.05-5.38-.05-8.55Zm-12.33-33.97c-5.57,0-11.14,0-16.71,0-1.52,0-3.05-.11-3.16,2.16-.5,10.39-.72,20.49,9.65,27.2,4.81,3.11,14.06,4.31,18.78.99,6.86-4.83,12.42-10.53,11.29-20.01-.28-2.37-.15-4.82-.02-7.22.12-2.33-.77-3.22-3.13-3.17-5.57.11-11.14.04-16.71.04Z"/><path d="m101.84,99.62c-5.5-3.22-8.61,1.71-12.26,5.4-2.96,2.99-5.97,5.93-9.03,8.81-3.53,3.33-7.27,3.46-10.36.48-2.97-2.87-3.06-6.94.19-10.45,3.98-4.3,8.15-8.42,12.4-12.45,2.13-2.02,2.87-3.85,2.3-7-1.95-10.86,8.03-20,18.5-17.33,1.92.49,3.86,1.2,4.57,3.24.74,2.14-1.12,3.22-2.33,4.49-.93.98-1.85,1.98-2.87,2.86-1.59,1.37-1.66,2.52-.06,4.05,1.48,1.41,2.5,1.2,3.73-.17,1-1.12,2.1-2.15,3.18-3.2,3.51-3.44,5.78-2.88,7.34,1.81,3.04,9.12-4.56,19.43-15.3,19.46Zm-.42-28.11c-8.22-.69-13.67,5.3-11.7,13.11.92,3.65.04,6.4-2.59,8.93-4.01,3.85-7.92,7.81-11.8,11.8-1.48,1.52-4.23,3.2-1.97,5.54,2.56,2.65,4.23-.45,5.82-1.96,3.81-3.63,7.55-7.34,11.17-11.16,2.83-2.99,5.73-4.09,10.02-2.96,7.3,1.92,13.67-4.57,12.21-12.07-3.03,1.22-4.14,5.23-7.25,5.67-3.83.55-5.36-3.36-7.59-5.56-6.08-6.03,3.54-6.92,3.68-11.33Z"/><path d="m32.87,73.05c.58.53,1.42,1.15,2.06,1.93.8.98-.02,1.73-.71,2.24-3.91,2.93-5.58,6.68-5.1,11.63.28,2.85-1.56,4.59-4.26,5.6-4.77,1.78-9.39,3.98-14.21,5.59-4.52,1.51-6.65,4.17-6.24,9,.13,1.54.9,3.9-2.13,3.95-3.1.05-2.14-2.3-2.17-3.86-.2-7.87,1.44-10.25,8.79-13.18,2.64-1.05,5.21-2.38,7.93-3.13,5.38-1.49,9.26-3.72,8.05-10.41-.38-2.11,6.11-9.35,7.99-9.36Z"/><path d="m49.13,10.91c0-.3,0-.6,0-.9,0-9.88,1.3-10.95,11.27-9.47,1.93.29,3.11,1.08,3.13,3.09.05,4.66.03,9.31.04,13.97,0,1.39-.48,2.22-2.09,2.26-1.79.05-2.41-.77-2.4-2.42.01-3.16-.09-6.31-.01-9.47.05-2.09-.74-2.96-2.89-2.92-2.05.04-2.52,1.1-2.5,2.85.04,3,0,6.01-.01,9.02,0,1.6-.1,2.97-2.35,2.94-2.35-.03-2.15-1.61-2.18-3.09-.04-1.95,0-3.91-.01-5.86Z"/><path d="m46.42,9.2c0,1.27,0,2.17,0,3.07.02,1.53-.38,2.65-2.22,2.67-1.81.02-2.35-1-2.3-2.58.15-4.17-1.71-2.81-3.57-1.28-4.3,3.54-6.46,8.16-6.87,13.66-.1,1.33.15,2.93-.49,3.93-1.12,1.75-2.34,4.66-5.07,3.14-2.46-1.38-.62-3.29.55-4.81.8-1.05.6-2.28.7-3.46.7-8.08,4.68-14.11,11.57-18.22,1.85-1.1,3.92-2.98,6.12-1.91,2.45,1.19,1.33,4,1.57,5.77Z"/><path d="m71.08,9c-.14,1.91-.23,2.94-.28,3.97-.08,1.57-1.03,2.02-2.42,1.96-1.24-.05-1.96-.64-2.02-1.92-.02-.3-.08-.61-.04-.9.36-2.89-1.46-6.8,1.39-8.43,2.92-1.66,5.86,1.2,8.32,2.95,4.81,3.42,7.94,8.09,9.16,13.96.59,2.86,0,6.01,2.43,8.43.69.69.62,2.17-.47,2.78-1.06.59-2.41.65-3.34-.36-1.52-1.66-2.55-3.41-2.59-5.94-.11-7.08-3.19-12.56-10.13-16.5Z"/></g></g></g></svg>