<?xml version="1.0" encoding="UTF-8"?><svg id="_레이어_2" xmlns="http://www.w3.org/2000/svg" viewBox="0 0 126.26 164.36"><defs><style>.cls-1{fill:#040000;}.cls-2{fill:#fff;}.cls-3{fill:#f2d1c5;}.cls-4{fill:#c30d23;}.cls-5{fill:none;stroke:#c30d23;stroke-miterlimit:10;}</style></defs><g id="_레이어_1-2"><g><path class="cls-1" d="m65.39,147.67c.53,11.21-7.1,16.73-15.77,16.7-6.1-.02-11.76-5.27-13.61-11.66-1.9-6.57.99-12.21,2.98-17.91,2.2-6.31,5.27-12.31,8.04-18.41.73-1.61,1.49-3.26,3.85-3.2,2.22.06,2.81,1.72,3.48,3.15,4.05,8.67,7.98,17.38,10.62,26.63.49,1.73.14,3.35.4,4.7Zm-14.41-22.52c-2.41,3.53-8.29,18.39-8.78,21.82-.57,4.03,1.84,8.66,5.19,9.92,6.06,2.29,12.12-1.4,11.31-9.64-.75-7.76-4.67-14.54-7.73-22.09Z"/><path class="cls-2" d="m86.05,84.68c3.91,8.69,8.17,17.27,10.46,26.58,1.35,5.46,2.78,11.04,1.02,16.72-1.53,4.94-6.62,7.8-12.35,7.08-2.87-.36-5.9-4.75-6.1-9.16-.45-9.63.64-19.09,3-28.46.94-3.73,2.41-7.46,1.88-11.46.94-.05,1.87-.1,2.1-1.3Z"/><path class="cls-3" d="m86.05,84.68c-.23,1.19-1.16,1.25-2.1,1.3-3.24-3.04-.82-5.14,1.49-6.65,3.28-2.15,3.5-5.86,5.32-8.7,2.75-4.27,1.53-8.98,2.24-13.43.19-1.22-.75-3.1-1.37-4.6-.94-2.28-.24-5.12-2.69-6.92-1.02-.74-.29-1.81.53-2.58.99-.93,1.86-.92,3-.15,3.76,2.54,7.57,5,11.39,7.45,3.72,2.38,6.26,6.1,9.87,8.61,1.39.96,2.44,2.21.49,3.78-4.5,3.63-8.7,7.82-13.92,10.27-3.98,1.87-6.97,5.25-11.39,6.43-1.94.52-2.98,2.86-2.86,5.2Z"/><path class="cls-3" d="m40.85,79.49c-5.16-.35-9.01-3.42-13.14-5.72-5.32-2.98-10.08-6.85-14.84-10.66-1.25-1-2.27-1.85-.08-3.5,7.28-5.49,13.87-11.93,22.27-15.84.74-.35,1.58-1.56,2.62-.23.86,1.09.17,1.78-.35,2.69-3.62,6.41-3.83,13.45-3.26,20.49.4,5.05,3.55,8.89,6.78,12.78Z"/><path class="cls-2" d="m50.98,125.15c3.06,7.55,6.97,14.34,7.73,22.09.8,8.24-5.25,11.93-11.31,9.64-3.34-1.26-5.75-5.89-5.19-9.92.48-3.43,6.36-18.29,8.78-21.82Z"/><g><polyline class="cls-5" points="90.92 53.03 95.95 52.26 99.27 49.46"/><path class="cls-4" d="m90.91,52.98c.76-.47,1.58-.74,2.46-.71.43.03.88.12,1.29.03.42-.07.82-.24,1.23-.4l-.18.08c.94-1.1,2.15-2.25,3.59-2.53-.67,1.38-1.84,2.33-3.12,3.08-.39.18-1.01-.05-1.47.07-.83.15-1.59.71-2.48.63-.43,0-.86-.02-1.31-.15-.04-.01-.05-.07-.02-.1h0Z"/><path class="cls-4" d="m90.91,52.98c.76-.47,1.58-.74,2.46-.71.43.03.88.12,1.29.03.42-.07.82-.24,1.23-.4l-.18.08c.94-1.15,2.07-2.08,3.52-2.57,0,0,.06.08.06.08-.75,1.4-1.92,2.39-3.28,3.12-.44-.03-.88-.08-1.31-.01-.83.15-1.59.71-2.48.63-.43,0-.86-.02-1.31-.15l-.02-.1h0Z"/></g><g><polyline class="cls-5" points="91.23 58.62 97.57 60.79 103.11 56.77 106.88 59.26"/><path class="cls-4" d="m91.25,58.57c2.24.24,4.44.78,6.6,1.41,0,0-.77.12-.77.12,1.84-1.43,3.73-2.79,5.75-3.96.22-.13.49-.1.67.05,1.04.86,2.51,2.04,3.41,3.03,0,0-.06.08-.06.08l-3.79-2.47c-1.42,1.22-3.71,2.73-5.45,4.02-.02.02-.05.02-.08.01l-6.33-2.2.03-.09h0Z"/><path class="cls-4" d="m91.25,58.57c2.29.2,4.36,1.04,6.38,2.06,0,0-.15.02-.15.02,1.96-1.38,3.6-3.22,5.63-4.53,1.34.93,2.63,1.92,3.8,3.1,0,0-.06.08-.06.08-1.43-.57-2.76-1.29-4.04-2.08h.61c-1.8,1.4-3.94,2.33-5.75,3.7,0,0-.06.05-.06.05-1.11-.31-2.29-.41-3.35-.85-1.05-.39-2.07-.84-3.04-1.45,0,0,.03-.09.03-.09h0Z"/></g><path class="cls-4" d="m97.13,70.95c-1.5.64-2.72.34-4.21.09-2.01-.8-4.15-1.32-5.65-3.06,0,0,.05-.09.05-.09,1.13.15,2.13.54,3.07,1.06.85.45,2.02,1.45,2.61,1.8,1.42-.23,2.73-.52,4.13.1,0,0,0,.1,0,.1h0Z"/><path class="cls-4" d="m17.33,60.77c2.73-.08,6.22.92,8.32,1.64,1.78-1.62,3.43-3.41,5.34-4.9,1.82.42,3.61.94,5.36,1.66,0,0-.02.1-.02.1-1.81-.06-3.57-.31-5.32-.65l.45-.11c-1.78,1.54-3.81,2.77-5.68,4.19-2.87-.45-5.78-.57-8.48-1.82,0,0,.02-.1.02-.1h0Z"/><path class="cls-4" d="m37.16,53.43c-1.23.19-2.23-.31-3.19-.93-1.05-.37-2.24-.25-3.27-.68-.69-.27-1.35-.62-1.96-1.15,0,0,.03-.09.03-.09,2.07-.26,3.53.89,5.29,1.62,1.15.07,2.23.26,3.12,1.14,0,0-.03.1-.03.1h0Z"/><path class="cls-4" d="m25.81,68.28c1.16-.95,2.59-1.23,4.01-1.3,2.16.75,4.48,1.05,6.22,2.75,0,0-.04.09-.04.09-1.2-.08-2.29-.41-3.31-.89-1.05-.43-1.93-1.26-2.99-1.66,0,0,.11,0,.11,0-.63.25-1.2.73-1.88.87-.67.17-1.34.29-2.08.23l-.03-.1h0Z"/><path class="cls-1" d="m69.5,11.78c.4,3.48-.34,7.72-.69,11.98-.16,1.94.49,2.68,2.61,2.96,4.8.63,9.62,1.51,14.12,3.38,1.88.78,3.06.52,4.37-.96,4.32-4.9,8.73-9.71,13.11-14.55,1.95-2.15,4.27-2.44,6.52-.73,2.45,1.86,2.28,4.02.31,6.36-3.56,4.22-7.14,8.41-11.09,12.27-1.74,1.7-2.15,2.48.52,4.02,9.47,5.46,17.56,12.7,25.03,20.63,2.86,3.04,2.62,6.06-1.09,9.48-7.45,6.86-15.32,13.2-24.35,17.91-1.85.97-2.31,1.73-1.4,3.7,4.02,8.7,7.83,17.55,9.11,27.11.99,7.38,1.56,14.85-3.51,21.49-3.29,4.3-7.72,6.31-12.65,6.98-13.87,1.88-19.13-7.29-20.31-18.16-1.13-10.35,1.43-20.24,3.24-30.21.39-2.16-.48-2.17-1.81-1.91-6.49,1.28-13.13,1.33-19.39-.2-13.39-3.28-26.02-8.56-37.1-17.05-4.44-3.4-8.86-6.83-12.83-10.79-3.42-3.41-2.69-4.68.58-8.36,4.43-4.98,9.46-9.11,14.76-12.97,3.9-2.84,8-5.44,12.17-7.87,1.75-1.02,1.59-1.49.51-2.92-3.47-4.61-6.83-9.31-10.05-14.1-1.09-1.62-2.74-3.27-1.23-5.68,2.06-3.28,5.66-3.59,7.93-.44,3.83,5.3,7.63,10.61,11.3,16.02,1.22,1.8,2.41,2.37,4.44,1.44,4.85-2.24,10.15-2.88,15.33-3.86,1.64-.31,2.06-.71,1.98-2.23-.37-6.55,1.04-13.04.72-19.61-.17-3.55,1.76-5.11,5.19-4.85,2.37.18,3.66,1.32,3.64,3.78-.02,2.39,0,4.77,0,7.97Zm14.45,74.19c.53,4-.94,7.73-1.88,11.46-2.36,9.37-3.45,18.82-3,28.46.21,4.41,3.23,8.8,6.1,9.16,5.73.72,10.82-2.14,12.35-7.08,1.76-5.67.32-11.26-1.02-16.72-2.29-9.3-6.55-17.88-10.46-26.58-.12-2.34.92-4.68,2.86-5.2,4.42-1.18,7.42-4.57,11.39-6.43,5.22-2.45,9.42-6.64,13.92-10.27,1.95-1.57.9-2.82-.49-3.78-3.61-2.51-6.15-6.23-9.87-8.61-3.82-2.44-7.63-4.91-11.39-7.45-1.14-.77-2.01-.78-3,.15-.82.78-1.55,1.84-.53,2.58,2.45,1.79,1.75,4.64,2.69,6.92.62,1.5,1.56,3.37,1.37,4.6-.71,4.46.51,9.16-2.24,13.43-1.82,2.83-2.04,6.55-5.32,8.7-2.32,1.52-4.74,3.61-1.49,6.65Zm-43.1-6.48c-3.24-3.89-6.38-7.73-6.78-12.78-.56-7.04-.35-14.08,3.26-20.49.52-.91,1.21-1.6.35-2.69-1.04-1.32-1.88-.11-2.62.23-8.39,3.91-14.98,10.35-22.27,15.84-2.19,1.65-1.17,2.5.08,3.5,4.76,3.81,9.52,7.69,14.84,10.66,4.13,2.31,7.98,5.37,13.14,5.72Z"/></g></g></svg>